<svg xmlns="http://www.w3.org/2000/svg" xmlns:xlink="http://www.w3.org/1999/xlink" xmlns:s="https://github.com/nturley/netlistsvg" width="419" height="165"><style>svg {
  stroke:#000;
  fill:none;
}
text {
  fill:#000;
  stroke:none;
  font-size:10px;
  font-weight: bold;
  font-family: "Courier New", monospace;
}
line {
    stroke-linecap: round;
}
.nodelabel {
  text-anchor: middle;
}
.inputPortLabel {
  text-anchor: end;
}
.splitjoinBody {
  fill:#000;
}</style><g s:type="generic" transform="translate(84,22)" s:width="30" s:height="40" id="cell_$abc$85$auto$blifparse.cc:386:parse_blif$86"><text x="15" y="-4" class="nodelabel cell_$abc$85$auto$blifparse.cc:386:parse_blif$86" s:attribute="ref">sky130_fd_sc_hd__and2_0</text><rect width="30" height="40" s:generic="body" class="cell_$abc$85$auto$blifparse.cc:386:parse_blif$86"/><g transform="translate(0,10)" s:x="0" s:y="10" s:pid="in0" id="port_$abc$85$auto$blifparse.cc:386:parse_blif$86~A"><text x="-3" y="-4" class="inputPortLabel cell_$abc$85$auto$blifparse.cc:386:parse_blif$86">A</text></g><g transform="translate(0,30)" s:x="0" s:y="10" s:pid="in0" id="port_$abc$85$auto$blifparse.cc:386:parse_blif$86~B"><text x="-3" y="-4" class="inputPortLabel cell_$abc$85$auto$blifparse.cc:386:parse_blif$86">B</text></g><g transform="translate(30,10)" s:x="30" s:y="10" s:pid="out0" id="port_$abc$85$auto$blifparse.cc:386:parse_blif$86~X"><text x="5" y="-4" style="fill:#000; stroke:none" class="cell_$abc$85$auto$blifparse.cc:386:parse_blif$86">X</text></g></g><g s:type="generic" transform="translate(84,110)" s:width="30" s:height="40" id="cell_$abc$85$auto$blifparse.cc:386:parse_blif$87"><text x="15" y="-4" class="nodelabel cell_$abc$85$auto$blifparse.cc:386:parse_blif$87" s:attribute="ref">sky130_fd_sc_hd__xor2_1</text><rect width="30" height="40" s:generic="body" class="cell_$abc$85$auto$blifparse.cc:386:parse_blif$87"/><g transform="translate(0,10)" s:x="0" s:y="10" s:pid="in0" id="port_$abc$85$auto$blifparse.cc:386:parse_blif$87~A"><text x="-3" y="-4" class="inputPortLabel cell_$abc$85$auto$blifparse.cc:386:parse_blif$87">A</text></g><g transform="translate(0,30)" s:x="0" s:y="10" s:pid="in0" id="port_$abc$85$auto$blifparse.cc:386:parse_blif$87~B"><text x="-3" y="-4" class="inputPortLabel cell_$abc$85$auto$blifparse.cc:386:parse_blif$87">B</text></g><g transform="translate(30,10)" s:x="30" s:y="10" s:pid="out0" id="port_$abc$85$auto$blifparse.cc:386:parse_blif$87~X"><text x="5" y="-4" style="fill:#000; stroke:none" class="cell_$abc$85$auto$blifparse.cc:386:parse_blif$87">X</text></g></g><g s:type="inputExt" transform="translate(12,130.5)" s:width="30" s:height="20" id="cell_a"><text x="15" y="-4" class="nodelabel cell_a" s:attribute="ref">a</text><s:alias val="$_inputExt_"/><path d="M0,0 L0,20 L15,20 L30,10 L15,0 Z" class="cell_a"/><g s:x="30" s:y="10" s:pid="Y"/></g><g s:type="inputExt" transform="translate(12,22.5)" s:width="30" s:height="20" id="cell_b"><text x="15" y="-4" class="nodelabel cell_b" s:attribute="ref">b</text><s:alias val="$_inputExt_"/><path d="M0,0 L0,20 L15,20 L30,10 L15,0 Z" class="cell_b"/><g s:x="30" s:y="10" s:pid="Y"/></g><g s:type="outputExt" transform="translate(377,110.5)" s:width="30" s:height="20" id="cell_sum"><text x="15" y="-4" class="nodelabel cell_sum" s:attribute="ref">sum</text><s:alias val="$_outputExt_"/><path d="M30,0 L30,20 L15,20 L0,10 L15,0 Z" class="cell_sum"/><g s:x="0" s:y="10" s:pid="A"/></g><g s:type="outputExt" transform="translate(377,22.5)" s:width="30" s:height="20" id="cell_co"><text x="15" y="-4" class="nodelabel cell_co" s:attribute="ref">co</text><s:alias val="$_outputExt_"/><path d="M30,0 L30,20 L15,20 L0,10 L15,0 Z" class="cell_co"/><g s:x="0" s:y="10" s:pid="A"/></g><line x1="42" x2="84" y1="32.5" y2="32.5" class="net_3 width_1" style="stroke-width: 1"/><line x1="42" x2="62" y1="32.5" y2="32.5" class="net_3 width_1" style="stroke-width: 1"/><line x1="62" x2="62" y1="32.5" y2="120.5" class="net_3 width_1" style="stroke-width: 1"/><circle cx="62" cy="32.5" r="2" style="fill:#000" class="net_3 width_1"/><line x1="62" x2="84" y1="120.5" y2="120.5" class="net_3 width_1" style="stroke-width: 1"/><line x1="42" x2="52" y1="140.5" y2="140.5" class="net_2 width_1" style="stroke-width: 1"/><line x1="52" x2="52" y1="140.5" y2="52.5" class="net_2 width_1" style="stroke-width: 1"/><circle cx="52" cy="140.5" r="2" style="fill:#000" class="net_2 width_1"/><line x1="52" x2="84" y1="52.5" y2="52.5" class="net_2 width_1" style="stroke-width: 1"/><line x1="42" x2="84" y1="140.5" y2="140.5" class="net_2 width_1" style="stroke-width: 1"/><line x1="115" x2="377" y1="120.5" y2="120.5" class="net_4 width_1" style="stroke-width: 1"/><line x1="115" x2="377" y1="32.5" y2="32.5" class="net_5 width_1" style="stroke-width: 1"/></svg>